# xmcd
#
# Track frame offsets:
#	182
#	27852
#	43422
#	56870
#	72022
#	92082
#	113375
#	126387
#	151342
#	169235
#
# Disc length: 3036 seconds
#
# Revision: 0
# Processed by: cddbd v1.5.2PL0 Copyright (c) Steve Scherf et al.
# Submitted via: dBpowerAMP V4.0
#
DISCID=850bda0a
DTITLE=The Tractors - Farmers In A Changing World
DYEAR=1998
DGENRE=Country
TTITLE0=I Wouldn't Tell You No Lie
TTITLE1=Linda Lou
TTITLE2=How Long Will It Take
TTITLE3=Shortenin' Bread
TTITLE4=The World's Biggest Fool
TTITLE5=Poor Boy Shuffle
TTITLE6=With A Girl Like You
TTITLE7=Elvis Thing/Mystery Train
TTITLE8=Way Too Late
TTITLE9=Foot Stomp Stompin'
EXTD=
EXTT0=
EXTT1=
EXTT2=
EXTT3=
EXTT4=
EXTT5=
EXTT6=
EXTT7=
EXTT8=
EXTT9=
PLAYORDER=
